  0
SECTION
  2
HEADER
  9
$ANGBASE
  50
0.0
  9
$ANGDIR
  70
1
  9
$MEASUREMENT
  70
1
  0
ENDSEC
  0
SECTION
  2
TABLES
  0
TABLE
  2
LTYPE
  70
4
  0
LTYPE
  5
40F
  2
CONTINUOUS
  70
0
  3
Solid line
  72
65
  73
0
  40
0.0
  0
LTYPE
  5
410
  2
DASHDOT
 70
0
  3
Dash Dot ____ _ ____ _
 72
65
 73
4
 40
2.0
 49
1.25
 49
-0.25
 49
0.25
 49
-0.25
  0
LTYPE
  5
411
  2
DASHED
 70
0
  3
Dashed __ __ __ __ __
 72
65
 73
2
 40
0.75
 49
0.5
 49
-0.25
  0
LTYPE
  5
43B
  2
DOTTED
 70
0
  3
Dotted .  .  .  .
 72
65
 73
2
 40
0.2
 49
0.0
 49
-0.2
  0
ENDTAB
  0
TABLE
  2
STYLE
  70
4
  0
STYLE
  2
KICAD
  70
0
  40
0
  41
1
  42
1
  50
0
  71
0
  3
isocp.shx
  0
STYLE
  2
KICADB
  70
0
  40
0
  41
1
  42
1
  50
0
  71
0
  3
isocp.shx
  0
STYLE
  2
KICADI
  70
0
  40
0
  41
1
  42
1
  50
15
  71
0
  3
isocp.shx
  0
STYLE
  2
KICADBI
  70
0
  40
0
  41
1
  42
1
  50
15
  71
0
  3
isocp.shx
  0
ENDTAB
  0
TABLE
  2
LAYER
  70
1
  0
LAYER
  2
BLACK
  70
0
  62
7
  6
CONTINUOUS
  0
ENDTAB
  0
ENDSEC
  0
SECTION
  2
ENTITIES
0
LINE
8
BLACK
6
CONTINUOUS
10
96.3849999999999909
20
-129.5949999999999989
11
95.1850000000000023
21
-129.5949999999999989
0
LINE
8
BLACK
6
CONTINUOUS
10
95.1850000000000023
20
-129.5949999999999989
11
95.1850000000000023
21
-127.0949999999999989
0
LINE
8
BLACK
6
CONTINUOUS
10
95.1850000000000023
20
-127.0949999999999989
11
96.3849999999999909
21
-127.0949999999999989
0
LINE
8
BLACK
6
CONTINUOUS
10
96.3849999999999909
20
-127.0949999999999989
11
96.3849999999999909
21
-129.5949999999999989
0
LINE
8
BLACK
6
CONTINUOUS
10
88.2849999999999966
20
-123.0949999999999989
11
87.0849999999999937
21
-123.0949999999999989
0
LINE
8
BLACK
6
CONTINUOUS
10
87.0849999999999937
20
-123.0949999999999989
11
87.0849999999999937
21
-120.5949999999999989
0
LINE
8
BLACK
6
CONTINUOUS
10
87.0849999999999937
20
-120.5949999999999989
11
88.2849999999999966
21
-120.5949999999999989
0
LINE
8
BLACK
6
CONTINUOUS
10
88.2849999999999966
20
-120.5949999999999989
11
88.2849999999999966
21
-123.0949999999999989
0
LINE
8
BLACK
6
CONTINUOUS
10
91.2849999999999966
20
-123.0949999999999989
11
90.0849999999999937
21
-123.0949999999999989
0
LINE
8
BLACK
6
CONTINUOUS
10
90.0849999999999937
20
-123.0949999999999989
11
90.0849999999999937
21
-120.5949999999999989
0
LINE
8
BLACK
6
CONTINUOUS
10
90.0849999999999937
20
-120.5949999999999989
11
91.2849999999999966
21
-120.5949999999999989
0
LINE
8
BLACK
6
CONTINUOUS
10
91.2849999999999966
20
-120.5949999999999989
11
91.2849999999999966
21
-123.0949999999999989
0
LINE
8
BLACK
6
CONTINUOUS
10
95.2849999999999966
20
-123.0949999999999989
11
94.0849999999999937
21
-123.0949999999999989
0
LINE
8
BLACK
6
CONTINUOUS
10
94.0849999999999937
20
-123.0949999999999989
11
94.0849999999999937
21
-120.5949999999999989
0
LINE
8
BLACK
6
CONTINUOUS
10
94.0849999999999937
20
-120.5949999999999989
11
95.2849999999999966
21
-120.5949999999999989
0
LINE
8
BLACK
6
CONTINUOUS
10
95.2849999999999966
20
-120.5949999999999989
11
95.2849999999999966
21
-123.0949999999999989
0
LINE
8
BLACK
6
CONTINUOUS
10
120.0069999999999908
20
-81.1749999999999972
11
119.0069999999999908
21
-81.1749999999999972
0
LINE
8
BLACK
6
CONTINUOUS
10
119.0069999999999908
20
-81.1749999999999972
11
119.0069999999999908
21
-79.7749999999999915
0
LINE
8
BLACK
6
CONTINUOUS
10
119.0069999999999908
20
-79.7749999999999915
11
120.0069999999999908
21
-79.7749999999999915
0
LINE
8
BLACK
6
CONTINUOUS
10
120.0069999999999908
20
-79.7749999999999915
11
120.0069999999999908
21
-81.1749999999999972
0
LINE
8
BLACK
6
CONTINUOUS
10
119.0569999999999879
20
-78.9749999999999943
11
118.0569999999999879
21
-78.9749999999999943
0
LINE
8
BLACK
6
CONTINUOUS
10
118.0569999999999879
20
-78.9749999999999943
11
118.0569999999999879
21
-77.5750000000000028
0
LINE
8
BLACK
6
CONTINUOUS
10
118.0569999999999879
20
-77.5750000000000028
11
119.0569999999999879
21
-77.5750000000000028
0
LINE
8
BLACK
6
CONTINUOUS
10
119.0569999999999879
20
-77.5750000000000028
11
119.0569999999999879
21
-78.9749999999999943
0
LINE
8
BLACK
6
CONTINUOUS
10
120.9569999999999936
20
-78.9749999999999943
11
119.9569999999999936
21
-78.9749999999999943
0
LINE
8
BLACK
6
CONTINUOUS
10
119.9569999999999936
20
-78.9749999999999943
11
119.9569999999999936
21
-77.5750000000000028
0
LINE
8
BLACK
6
CONTINUOUS
10
119.9569999999999936
20
-77.5750000000000028
11
120.9569999999999936
21
-77.5750000000000028
0
LINE
8
BLACK
6
CONTINUOUS
10
120.9569999999999936
20
-77.5750000000000028
11
120.9569999999999936
21
-78.9749999999999943
0
LINE
8
BLACK
6
CONTINUOUS
10
153.7349999999999852
20
-76.8269999999999982
11
152.3349999999999795
21
-76.8269999999999982
0
LINE
8
BLACK
6
CONTINUOUS
10
152.3349999999999795
20
-76.8269999999999982
11
152.3349999999999795
21
-75.8269999999999982
0
LINE
8
BLACK
6
CONTINUOUS
10
152.3349999999999795
20
-75.8269999999999982
11
153.7349999999999852
21
-75.8269999999999982
0
LINE
8
BLACK
6
CONTINUOUS
10
153.7349999999999852
20
-75.8269999999999982
11
153.7349999999999852
21
-76.8269999999999982
0
LINE
8
BLACK
6
CONTINUOUS
10
151.5349999999999966
20
-75.8769999999999953
11
150.1349999999999909
21
-75.8769999999999953
0
LINE
8
BLACK
6
CONTINUOUS
10
150.1349999999999909
20
-75.8769999999999953
11
150.1349999999999909
21
-74.8769999999999953
0
LINE
8
BLACK
6
CONTINUOUS
10
150.1349999999999909
20
-74.8769999999999953
11
151.5349999999999966
21
-74.8769999999999953
0
LINE
8
BLACK
6
CONTINUOUS
10
151.5349999999999966
20
-74.8769999999999953
11
151.5349999999999966
21
-75.8769999999999953
0
LINE
8
BLACK
6
CONTINUOUS
10
153.7349999999999852
20
-74.9269999999999925
11
152.3349999999999795
21
-74.9269999999999925
0
LINE
8
BLACK
6
CONTINUOUS
10
152.3349999999999795
20
-74.9269999999999925
11
152.3349999999999795
21
-73.9269999999999925
0
LINE
8
BLACK
6
CONTINUOUS
10
152.3349999999999795
20
-73.9269999999999925
11
153.7349999999999852
21
-73.9269999999999925
0
LINE
8
BLACK
6
CONTINUOUS
10
153.7349999999999852
20
-73.9269999999999925
11
153.7349999999999852
21
-74.9269999999999925
0
LINE
8
BLACK
6
CONTINUOUS
10
179.6359999999999957
20
-68.7289999999999992
11
178.6359999999999957
21
-68.7289999999999992
0
LINE
8
BLACK
6
CONTINUOUS
10
178.6359999999999957
20
-68.7289999999999992
11
178.6359999999999957
21
-67.3289999999999935
0
LINE
8
BLACK
6
CONTINUOUS
10
178.6359999999999957
20
-67.3289999999999935
11
179.6359999999999957
21
-67.3289999999999935
0
LINE
8
BLACK
6
CONTINUOUS
10
179.6359999999999957
20
-67.3289999999999935
11
179.6359999999999957
21
-68.7289999999999992
0
LINE
8
BLACK
6
CONTINUOUS
10
181.5360000000000014
20
-68.7289999999999992
11
180.5360000000000014
21
-68.7289999999999992
0
LINE
8
BLACK
6
CONTINUOUS
10
180.5360000000000014
20
-68.7289999999999992
11
180.5360000000000014
21
-67.3289999999999935
0
LINE
8
BLACK
6
CONTINUOUS
10
180.5360000000000014
20
-67.3289999999999935
11
181.5360000000000014
21
-67.3289999999999935
0
LINE
8
BLACK
6
CONTINUOUS
10
181.5360000000000014
20
-67.3289999999999935
11
181.5360000000000014
21
-68.7289999999999992
0
LINE
8
BLACK
6
CONTINUOUS
10
180.5859999999999843
20
-66.5289999999999964
11
179.5859999999999843
21
-66.5289999999999964
0
LINE
8
BLACK
6
CONTINUOUS
10
179.5859999999999843
20
-66.5289999999999964
11
179.5859999999999843
21
-65.1289999999999907
0
LINE
8
BLACK
6
CONTINUOUS
10
179.5859999999999843
20
-65.1289999999999907
11
180.5859999999999843
21
-65.1289999999999907
0
LINE
8
BLACK
6
CONTINUOUS
10
180.5859999999999843
20
-65.1289999999999907
11
180.5859999999999843
21
-66.5289999999999964
0
LINE
8
BLACK
6
CONTINUOUS
10
98.6896709999999899
20
-58.8540299999999945
11
98.7707769999999954
21
-58.9082229999999996
0
LINE
8
BLACK
6
CONTINUOUS
10
98.7707769999999954
20
-58.9082229999999996
11
98.8249699999999933
21
-58.9893289999999979
0
LINE
8
BLACK
6
CONTINUOUS
10
98.8249699999999933
20
-58.9893289999999979
11
98.8439999999999941
21
-59.0850000000000009
0
LINE
8
BLACK
6
CONTINUOUS
10
98.8439999999999941
20
-59.0850000000000009
11
98.8439999999999941
21
-62.0849999999999937
0
LINE
8
BLACK
6
CONTINUOUS
10
98.8439999999999941
20
-62.0849999999999937
11
98.8249699999999933
21
-62.1806709999999967
0
LINE
8
BLACK
6
CONTINUOUS
10
98.8249699999999933
20
-62.1806709999999967
11
98.7707769999999954
21
-62.261776999999995
0
LINE
8
BLACK
6
CONTINUOUS
10
98.7707769999999954
20
-62.261776999999995
11
98.6896709999999899
21
-62.3159700000000001
0
LINE
8
BLACK
6
CONTINUOUS
10
98.6896709999999899
20
-62.3159700000000001
11
98.5939999999999941
21
-62.3349999999999937
0
LINE
8
BLACK
6
CONTINUOUS
10
98.5939999999999941
20
-62.3349999999999937
11
97.4939999999999998
21
-62.3349999999999937
0
LINE
8
BLACK
6
CONTINUOUS
10
97.4939999999999998
20
-62.3349999999999937
11
97.3983289999999897
21
-62.3159700000000001
0
LINE
8
BLACK
6
CONTINUOUS
10
97.3983289999999897
20
-62.3159700000000001
11
97.3172229999999985
21
-62.261776999999995
0
LINE
8
BLACK
6
CONTINUOUS
10
97.3172229999999985
20
-62.261776999999995
11
97.2630300000000005
21
-62.1806709999999967
0
LINE
8
BLACK
6
CONTINUOUS
10
97.2630300000000005
20
-62.1806709999999967
11
97.2439999999999998
21
-62.0849999999999937
0
LINE
8
BLACK
6
CONTINUOUS
10
97.2439999999999998
20
-62.0849999999999937
11
97.2439999999999998
21
-59.0850000000000009
0
LINE
8
BLACK
6
CONTINUOUS
10
97.2439999999999998
20
-59.0850000000000009
11
97.2630300000000005
21
-58.9893289999999979
0
LINE
8
BLACK
6
CONTINUOUS
10
97.2630300000000005
20
-58.9893289999999979
11
97.3172229999999985
21
-58.9082229999999996
0
LINE
8
BLACK
6
CONTINUOUS
10
97.3172229999999985
20
-58.9082229999999996
11
97.3983289999999897
21
-58.8540299999999945
0
LINE
8
BLACK
6
CONTINUOUS
10
97.3983289999999897
20
-58.8540299999999945
11
97.4939999999999998
21
-58.8350000000000009
0
LINE
8
BLACK
6
CONTINUOUS
10
97.4939999999999998
20
-58.8350000000000009
11
98.5939999999999941
21
-58.8350000000000009
0
LINE
8
BLACK
6
CONTINUOUS
10
98.5939999999999941
20
-58.8350000000000009
11
98.6896709999999899
21
-58.8540299999999945
0
LINE
8
BLACK
6
CONTINUOUS
10
87.2596709999999973
20
-59.3200299999999956
11
87.3407770000000028
21
-59.3742230000000006
0
LINE
8
BLACK
6
CONTINUOUS
10
87.3407770000000028
20
-59.3742230000000006
11
87.3949700000000007
21
-59.455328999999999
0
LINE
8
BLACK
6
CONTINUOUS
10
87.3949700000000007
20
-59.455328999999999
11
87.4140000000000015
21
-59.5509999999999948
0
LINE
8
BLACK
6
CONTINUOUS
10
87.4140000000000015
20
-59.5509999999999948
11
87.4140000000000015
21
-61.6509999999999962
0
LINE
8
BLACK
6
CONTINUOUS
10
87.4140000000000015
20
-61.6509999999999962
11
87.3949700000000007
21
-61.7466709999999992
0
LINE
8
BLACK
6
CONTINUOUS
10
87.3949700000000007
20
-61.7466709999999992
11
87.3407770000000028
21
-61.8277769999999975
0
LINE
8
BLACK
6
CONTINUOUS
10
87.3407770000000028
20
-61.8277769999999975
11
87.2596709999999973
21
-61.8819699999999955
0
LINE
8
BLACK
6
CONTINUOUS
10
87.2596709999999973
20
-61.8819699999999955
11
87.1640000000000015
21
-61.9009999999999962
0
LINE
8
BLACK
6
CONTINUOUS
10
87.1640000000000015
20
-61.9009999999999962
11
86.063999999999993
21
-61.9009999999999962
0
LINE
8
BLACK
6
CONTINUOUS
10
86.063999999999993
20
-61.9009999999999962
11
85.9683289999999971
21
-61.8819699999999955
0
LINE
8
BLACK
6
CONTINUOUS
10
85.9683289999999971
20
-61.8819699999999955
11
85.8872229999999917
21
-61.8277769999999975
0
LINE
8
BLACK
6
CONTINUOUS
10
85.8872229999999917
20
-61.8277769999999975
11
85.8330299999999937
21
-61.7466709999999992
0
LINE
8
BLACK
6
CONTINUOUS
10
85.8330299999999937
20
-61.7466709999999992
11
85.813999999999993
21
-61.6509999999999962
0
LINE
8
BLACK
6
CONTINUOUS
10
85.813999999999993
20
-61.6509999999999962
11
85.813999999999993
21
-59.5509999999999948
0
LINE
8
BLACK
6
CONTINUOUS
10
85.813999999999993
20
-59.5509999999999948
11
85.8330299999999937
21
-59.455328999999999
0
LINE
8
BLACK
6
CONTINUOUS
10
85.8330299999999937
20
-59.455328999999999
11
85.8872229999999917
21
-59.3742230000000006
0
LINE
8
BLACK
6
CONTINUOUS
10
85.8872229999999917
20
-59.3742230000000006
11
85.9683289999999971
21
-59.3200299999999956
0
LINE
8
BLACK
6
CONTINUOUS
10
85.9683289999999971
20
-59.3200299999999956
11
86.063999999999993
21
-59.3009999999999948
0
LINE
8
BLACK
6
CONTINUOUS
10
86.063999999999993
20
-59.3009999999999948
11
87.1640000000000015
21
-59.3009999999999948
0
LINE
8
BLACK
6
CONTINUOUS
10
87.1640000000000015
20
-59.3009999999999948
11
87.2596709999999973
21
-59.3200299999999956
0
LINE
8
BLACK
6
CONTINUOUS
10
90.3776709999999923
20
-57.866029999999995
11
90.4587769999999978
21
-57.920223
0
LINE
8
BLACK
6
CONTINUOUS
10
90.4587769999999978
20
-57.920223
11
90.5129699999999957
21
-58.0013289999999984
0
LINE
8
BLACK
6
CONTINUOUS
10
90.5129699999999957
20
-58.0013289999999984
11
90.5319999999999965
21
-58.0969999999999942
0
LINE
8
BLACK
6
CONTINUOUS
10
90.5319999999999965
20
-58.0969999999999942
11
90.5319999999999965
21
-58.9969999999999999
0
LINE
8
BLACK
6
CONTINUOUS
10
90.5319999999999965
20
-58.9969999999999999
11
90.5129699999999957
21
-59.0926709999999957
0
LINE
8
BLACK
6
CONTINUOUS
10
90.5129699999999957
20
-59.0926709999999957
11
90.4587769999999978
21
-59.1737769999999941
0
LINE
8
BLACK
6
CONTINUOUS
10
90.4587769999999978
20
-59.1737769999999941
11
90.3776709999999923
21
-59.2279699999999991
0
LINE
8
BLACK
6
CONTINUOUS
10
90.3776709999999923
20
-59.2279699999999991
11
90.2819999999999965
21
-59.2469999999999999
0
LINE
8
BLACK
6
CONTINUOUS
10
90.2819999999999965
20
-59.2469999999999999
11
89.5819999999999936
21
-59.2469999999999999
0
LINE
8
BLACK
6
CONTINUOUS
10
89.5819999999999936
20
-59.2469999999999999
11
89.4863289999999978
21
-59.2279699999999991
0
LINE
8
BLACK
6
CONTINUOUS
10
89.4863289999999978
20
-59.2279699999999991
11
89.4052229999999923
21
-59.1737769999999941
0
LINE
8
BLACK
6
CONTINUOUS
10
89.4052229999999923
20
-59.1737769999999941
11
89.3510299999999944
21
-59.0926709999999957
0
LINE
8
BLACK
6
CONTINUOUS
10
89.3510299999999944
20
-59.0926709999999957
11
89.3319999999999936
21
-58.9969999999999999
0
LINE
8
BLACK
6
CONTINUOUS
10
89.3319999999999936
20
-58.9969999999999999
11
89.3319999999999936
21
-58.0969999999999942
0
LINE
8
BLACK
6
CONTINUOUS
10
89.3319999999999936
20
-58.0969999999999942
11
89.3510299999999944
21
-58.0013289999999984
0
LINE
8
BLACK
6
CONTINUOUS
10
89.3510299999999944
20
-58.0013289999999984
11
89.4052229999999923
21
-57.920223
0
LINE
8
BLACK
6
CONTINUOUS
10
89.4052229999999923
20
-57.920223
11
89.4863289999999978
21
-57.866029999999995
0
LINE
8
BLACK
6
CONTINUOUS
10
89.4863289999999978
20
-57.866029999999995
11
89.5819999999999936
21
-57.8469999999999942
0
LINE
8
BLACK
6
CONTINUOUS
10
89.5819999999999936
20
-57.8469999999999942
11
90.2819999999999965
21
-57.8469999999999942
0
LINE
8
BLACK
6
CONTINUOUS
10
90.2819999999999965
20
-57.8469999999999942
11
90.3776709999999923
21
-57.866029999999995
0
LINE
8
BLACK
6
CONTINUOUS
10
92.3776709999999923
20
-57.866029999999995
11
92.4587769999999978
21
-57.920223
0
LINE
8
BLACK
6
CONTINUOUS
10
92.4587769999999978
20
-57.920223
11
92.5129699999999957
21
-58.0013289999999984
0
LINE
8
BLACK
6
CONTINUOUS
10
92.5129699999999957
20
-58.0013289999999984
11
92.5319999999999965
21
-58.0969999999999942
0
LINE
8
BLACK
6
CONTINUOUS
10
92.5319999999999965
20
-58.0969999999999942
11
92.5319999999999965
21
-58.9969999999999999
0
LINE
8
BLACK
6
CONTINUOUS
10
92.5319999999999965
20
-58.9969999999999999
11
92.5129699999999957
21
-59.0926709999999957
0
LINE
8
BLACK
6
CONTINUOUS
10
92.5129699999999957
20
-59.0926709999999957
11
92.4587769999999978
21
-59.1737769999999941
0
LINE
8
BLACK
6
CONTINUOUS
10
92.4587769999999978
20
-59.1737769999999941
11
92.3776709999999923
21
-59.2279699999999991
0
LINE
8
BLACK
6
CONTINUOUS
10
92.3776709999999923
20
-59.2279699999999991
11
92.2819999999999965
21
-59.2469999999999999
0
LINE
8
BLACK
6
CONTINUOUS
10
92.2819999999999965
20
-59.2469999999999999
11
91.5819999999999936
21
-59.2469999999999999
0
LINE
8
BLACK
6
CONTINUOUS
10
91.5819999999999936
20
-59.2469999999999999
11
91.4863289999999978
21
-59.2279699999999991
0
LINE
8
BLACK
6
CONTINUOUS
10
91.4863289999999978
20
-59.2279699999999991
11
91.4052229999999923
21
-59.1737769999999941
0
LINE
8
BLACK
6
CONTINUOUS
10
91.4052229999999923
20
-59.1737769999999941
11
91.3510299999999944
21
-59.0926709999999957
0
LINE
8
BLACK
6
CONTINUOUS
10
91.3510299999999944
20
-59.0926709999999957
11
91.3319999999999936
21
-58.9969999999999999
0
LINE
8
BLACK
6
CONTINUOUS
10
91.3319999999999936
20
-58.9969999999999999
11
91.3319999999999936
21
-58.0969999999999942
0
LINE
8
BLACK
6
CONTINUOUS
10
91.3319999999999936
20
-58.0969999999999942
11
91.3510299999999944
21
-58.0013289999999984
0
LINE
8
BLACK
6
CONTINUOUS
10
91.3510299999999944
20
-58.0013289999999984
11
91.4052229999999923
21
-57.920223
0
LINE
8
BLACK
6
CONTINUOUS
10
91.4052229999999923
20
-57.920223
11
91.4863289999999978
21
-57.866029999999995
0
LINE
8
BLACK
6
CONTINUOUS
10
91.4863289999999978
20
-57.866029999999995
11
91.5819999999999936
21
-57.8469999999999942
0
LINE
8
BLACK
6
CONTINUOUS
10
91.5819999999999936
20
-57.8469999999999942
11
92.2819999999999965
21
-57.8469999999999942
0
LINE
8
BLACK
6
CONTINUOUS
10
92.2819999999999965
20
-57.8469999999999942
11
92.3776709999999923
21
-57.866029999999995
0
LINE
8
BLACK
6
CONTINUOUS
10
87.2596709999999973
20
-55.7200299999999942
11
87.3407770000000028
21
-55.7742229999999992
0
LINE
8
BLACK
6
CONTINUOUS
10
87.3407770000000028
20
-55.7742229999999992
11
87.3949700000000007
21
-55.8553289999999976
0
LINE
8
BLACK
6
CONTINUOUS
10
87.3949700000000007
20
-55.8553289999999976
11
87.4140000000000015
21
-55.9510000000000005
0
LINE
8
BLACK
6
CONTINUOUS
10
87.4140000000000015
20
-55.9510000000000005
11
87.4140000000000015
21
-58.0509999999999948
0
LINE
8
BLACK
6
CONTINUOUS
10
87.4140000000000015
20
-58.0509999999999948
11
87.3949700000000007
21
-58.1466709999999978
0
LINE
8
BLACK
6
CONTINUOUS
10
87.3949700000000007
20
-58.1466709999999978
11
87.3407770000000028
21
-58.2277769999999961
0
LINE
8
BLACK
6
CONTINUOUS
10
87.3407770000000028
20
-58.2277769999999961
11
87.2596709999999973
21
-58.2819699999999941
0
LINE
8
BLACK
6
CONTINUOUS
10
87.2596709999999973
20
-58.2819699999999941
11
87.1640000000000015
21
-58.3009999999999948
0
LINE
8
BLACK
6
CONTINUOUS
10
87.1640000000000015
20
-58.3009999999999948
11
86.063999999999993
21
-58.3009999999999948
0
LINE
8
BLACK
6
CONTINUOUS
10
86.063999999999993
20
-58.3009999999999948
11
85.9683289999999971
21
-58.2819699999999941
0
LINE
8
BLACK
6
CONTINUOUS
10
85.9683289999999971
20
-58.2819699999999941
11
85.8872229999999917
21
-58.2277769999999961
0
LINE
8
BLACK
6
CONTINUOUS
10
85.8872229999999917
20
-58.2277769999999961
11
85.8330299999999937
21
-58.1466709999999978
0
LINE
8
BLACK
6
CONTINUOUS
10
85.8330299999999937
20
-58.1466709999999978
11
85.813999999999993
21
-58.0509999999999948
0
LINE
8
BLACK
6
CONTINUOUS
10
85.813999999999993
20
-58.0509999999999948
11
85.813999999999993
21
-55.9510000000000005
0
LINE
8
BLACK
6
CONTINUOUS
10
85.813999999999993
20
-55.9510000000000005
11
85.8330299999999937
21
-55.8553289999999976
0
LINE
8
BLACK
6
CONTINUOUS
10
85.8330299999999937
20
-55.8553289999999976
11
85.8872229999999917
21
-55.7742229999999992
0
LINE
8
BLACK
6
CONTINUOUS
10
85.8872229999999917
20
-55.7742229999999992
11
85.9683289999999971
21
-55.7200299999999942
0
LINE
8
BLACK
6
CONTINUOUS
10
85.9683289999999971
20
-55.7200299999999942
11
86.063999999999993
21
-55.7010000000000005
0
LINE
8
BLACK
6
CONTINUOUS
10
86.063999999999993
20
-55.7010000000000005
11
87.1640000000000015
21
-55.7010000000000005
0
LINE
8
BLACK
6
CONTINUOUS
10
87.1640000000000015
20
-55.7010000000000005
11
87.2596709999999973
21
-55.7200299999999942
0
LINE
8
BLACK
6
CONTINUOUS
10
90.3776709999999923
20
-55.8340299999999985
11
90.4587769999999978
21
-55.8882229999999964
0
LINE
8
BLACK
6
CONTINUOUS
10
90.4587769999999978
20
-55.8882229999999964
11
90.5129699999999957
21
-55.9693289999999948
0
LINE
8
BLACK
6
CONTINUOUS
10
90.5129699999999957
20
-55.9693289999999948
11
90.5319999999999965
21
-56.0649999999999977
0
LINE
8
BLACK
6
CONTINUOUS
10
90.5319999999999965
20
-56.0649999999999977
11
90.5319999999999965
21
-56.9649999999999963
0
LINE
8
BLACK
6
CONTINUOUS
10
90.5319999999999965
20
-56.9649999999999963
11
90.5129699999999957
21
-57.0606709999999993
0
LINE
8
BLACK
6
CONTINUOUS
10
90.5129699999999957
20
-57.0606709999999993
11
90.4587769999999978
21
-57.1417769999999976
0
LINE
8
BLACK
6
CONTINUOUS
10
90.4587769999999978
20
-57.1417769999999976
11
90.3776709999999923
21
-57.1959699999999955
0
LINE
8
BLACK
6
CONTINUOUS
10
90.3776709999999923
20
-57.1959699999999955
11
90.2819999999999965
21
-57.2149999999999963
0
LINE
8
BLACK
6
CONTINUOUS
10
90.2819999999999965
20
-57.2149999999999963
11
89.5819999999999936
21
-57.2149999999999963
0
LINE
8
BLACK
6
CONTINUOUS
10
89.5819999999999936
20
-57.2149999999999963
11
89.4863289999999978
21
-57.1959699999999955
0
LINE
8
BLACK
6
CONTINUOUS
10
89.4863289999999978
20
-57.1959699999999955
11
89.4052229999999923
21
-57.1417769999999976
0
LINE
8
BLACK
6
CONTINUOUS
10
89.4052229999999923
20
-57.1417769999999976
11
89.3510299999999944
21
-57.0606709999999993
0
LINE
8
BLACK
6
CONTINUOUS
10
89.3510299999999944
20
-57.0606709999999993
11
89.3319999999999936
21
-56.9649999999999963
0
LINE
8
BLACK
6
CONTINUOUS
10
89.3319999999999936
20
-56.9649999999999963
11
89.3319999999999936
21
-56.0649999999999977
0
LINE
8
BLACK
6
CONTINUOUS
10
89.3319999999999936
20
-56.0649999999999977
11
89.3510299999999944
21
-55.9693289999999948
0
LINE
8
BLACK
6
CONTINUOUS
10
89.3510299999999944
20
-55.9693289999999948
11
89.4052229999999923
21
-55.8882229999999964
0
LINE
8
BLACK
6
CONTINUOUS
10
89.4052229999999923
20
-55.8882229999999964
11
89.4863289999999978
21
-55.8340299999999985
0
LINE
8
BLACK
6
CONTINUOUS
10
89.4863289999999978
20
-55.8340299999999985
11
89.5819999999999936
21
-55.8149999999999977
0
LINE
8
BLACK
6
CONTINUOUS
10
89.5819999999999936
20
-55.8149999999999977
11
90.2819999999999965
21
-55.8149999999999977
0
LINE
8
BLACK
6
CONTINUOUS
10
90.2819999999999965
20
-55.8149999999999977
11
90.3776709999999923
21
-55.8340299999999985
0
LINE
8
BLACK
6
CONTINUOUS
10
92.3776709999999923
20
-55.8340299999999985
11
92.4587769999999978
21
-55.8882229999999964
0
LINE
8
BLACK
6
CONTINUOUS
10
92.4587769999999978
20
-55.8882229999999964
11
92.5129699999999957
21
-55.9693289999999948
0
LINE
8
BLACK
6
CONTINUOUS
10
92.5129699999999957
20
-55.9693289999999948
11
92.5319999999999965
21
-56.0649999999999977
0
LINE
8
BLACK
6
CONTINUOUS
10
92.5319999999999965
20
-56.0649999999999977
11
92.5319999999999965
21
-56.9649999999999963
0
LINE
8
BLACK
6
CONTINUOUS
10
92.5319999999999965
20
-56.9649999999999963
11
92.5129699999999957
21
-57.0606709999999993
0
LINE
8
BLACK
6
CONTINUOUS
10
92.5129699999999957
20
-57.0606709999999993
11
92.4587769999999978
21
-57.1417769999999976
0
LINE
8
BLACK
6
CONTINUOUS
10
92.4587769999999978
20
-57.1417769999999976
11
92.3776709999999923
21
-57.1959699999999955
0
LINE
8
BLACK
6
CONTINUOUS
10
92.3776709999999923
20
-57.1959699999999955
11
92.2819999999999965
21
-57.2149999999999963
0
LINE
8
BLACK
6
CONTINUOUS
10
92.2819999999999965
20
-57.2149999999999963
11
91.5819999999999936
21
-57.2149999999999963
0
LINE
8
BLACK
6
CONTINUOUS
10
91.5819999999999936
20
-57.2149999999999963
11
91.4863289999999978
21
-57.1959699999999955
0
LINE
8
BLACK
6
CONTINUOUS
10
91.4863289999999978
20
-57.1959699999999955
11
91.4052229999999923
21
-57.1417769999999976
0
LINE
8
BLACK
6
CONTINUOUS
10
91.4052229999999923
20
-57.1417769999999976
11
91.3510299999999944
21
-57.0606709999999993
0
LINE
8
BLACK
6
CONTINUOUS
10
91.3510299999999944
20
-57.0606709999999993
11
91.3319999999999936
21
-56.9649999999999963
0
LINE
8
BLACK
6
CONTINUOUS
10
91.3319999999999936
20
-56.9649999999999963
11
91.3319999999999936
21
-56.0649999999999977
0
LINE
8
BLACK
6
CONTINUOUS
10
91.3319999999999936
20
-56.0649999999999977
11
91.3510299999999944
21
-55.9693289999999948
0
LINE
8
BLACK
6
CONTINUOUS
10
91.3510299999999944
20
-55.9693289999999948
11
91.4052229999999923
21
-55.8882229999999964
0
LINE
8
BLACK
6
CONTINUOUS
10
91.4052229999999923
20
-55.8882229999999964
11
91.4863289999999978
21
-55.8340299999999985
0
LINE
8
BLACK
6
CONTINUOUS
10
91.4863289999999978
20
-55.8340299999999985
11
91.5819999999999936
21
-55.8149999999999977
0
LINE
8
BLACK
6
CONTINUOUS
10
91.5819999999999936
20
-55.8149999999999977
11
92.2819999999999965
21
-55.8149999999999977
0
LINE
8
BLACK
6
CONTINUOUS
10
92.2819999999999965
20
-55.8149999999999977
11
92.3776709999999923
21
-55.8340299999999985
0
LINE
8
BLACK
6
CONTINUOUS
10
98.6896709999999899
20
-53.2540300000000002
11
98.7707769999999954
21
-53.3082229999999981
0
LINE
8
BLACK
6
CONTINUOUS
10
98.7707769999999954
20
-53.3082229999999981
11
98.8249699999999933
21
-53.3893289999999965
0
LINE
8
BLACK
6
CONTINUOUS
10
98.8249699999999933
20
-53.3893289999999965
11
98.8439999999999941
21
-53.4849999999999994
0
LINE
8
BLACK
6
CONTINUOUS
10
98.8439999999999941
20
-53.4849999999999994
11
98.8439999999999941
21
-56.4849999999999994
0
LINE
8
BLACK
6
CONTINUOUS
10
98.8439999999999941
20
-56.4849999999999994
11
98.8249699999999933
21
-56.5806709999999953
0
LINE
8
BLACK
6
CONTINUOUS
10
98.8249699999999933
20
-56.5806709999999953
11
98.7707769999999954
21
-56.6617770000000007
0
LINE
8
BLACK
6
CONTINUOUS
10
98.7707769999999954
20
-56.6617770000000007
11
98.6896709999999899
21
-56.7159699999999987
0
LINE
8
BLACK
6
CONTINUOUS
10
98.6896709999999899
20
-56.7159699999999987
11
98.5939999999999941
21
-56.7349999999999994
0
LINE
8
BLACK
6
CONTINUOUS
10
98.5939999999999941
20
-56.7349999999999994
11
97.4939999999999998
21
-56.7349999999999994
0
LINE
8
BLACK
6
CONTINUOUS
10
97.4939999999999998
20
-56.7349999999999994
11
97.3983289999999897
21
-56.7159699999999987
0
LINE
8
BLACK
6
CONTINUOUS
10
97.3983289999999897
20
-56.7159699999999987
11
97.3172229999999985
21
-56.6617770000000007
0
LINE
8
BLACK
6
CONTINUOUS
10
97.3172229999999985
20
-56.6617770000000007
11
97.2630300000000005
21
-56.5806709999999953
0
LINE
8
BLACK
6
CONTINUOUS
10
97.2630300000000005
20
-56.5806709999999953
11
97.2439999999999998
21
-56.4849999999999994
0
LINE
8
BLACK
6
CONTINUOUS
10
97.2439999999999998
20
-56.4849999999999994
11
97.2439999999999998
21
-53.4849999999999994
0
LINE
8
BLACK
6
CONTINUOUS
10
97.2439999999999998
20
-53.4849999999999994
11
97.2630300000000005
21
-53.3893289999999965
0
LINE
8
BLACK
6
CONTINUOUS
10
97.2630300000000005
20
-53.3893289999999965
11
97.3172229999999985
21
-53.3082229999999981
0
LINE
8
BLACK
6
CONTINUOUS
10
97.3172229999999985
20
-53.3082229999999981
11
97.3983289999999897
21
-53.2540300000000002
0
LINE
8
BLACK
6
CONTINUOUS
10
97.3983289999999897
20
-53.2540300000000002
11
97.4939999999999998
21
-53.2349999999999994
0
LINE
8
BLACK
6
CONTINUOUS
10
97.4939999999999998
20
-53.2349999999999994
11
98.5939999999999941
21
-53.2349999999999994
0
LINE
8
BLACK
6
CONTINUOUS
10
98.5939999999999941
20
-53.2349999999999994
11
98.6896709999999899
21
-53.2540300000000002
0
LINE
8
BLACK
6
CONTINUOUS
10
107.5656709999999947
20
-54.0580299999999951
11
107.6467770000000002
21
-54.1122230000000002
0
LINE
8
BLACK
6
CONTINUOUS
10
107.6467770000000002
20
-54.1122230000000002
11
107.7009699999999981
21
-54.1933289999999985
0
LINE
8
BLACK
6
CONTINUOUS
10
107.7009699999999981
20
-54.1933289999999985
11
107.7199990000000014
21
-54.2889999999999944
0
LINE
8
BLACK
6
CONTINUOUS
10
107.7199990000000014
20
-54.2889999999999944
11
107.7199999999999989
21
-55.1890009999999975
0
LINE
8
BLACK
6
CONTINUOUS
10
107.7199999999999989
20
-55.1890009999999975
11
107.7009699999999981
21
-55.2846709999999959
0
LINE
8
BLACK
6
CONTINUOUS
10
107.7009699999999981
20
-55.2846709999999959
11
107.6467770000000002
21
-55.3657769999999942
0
LINE
8
BLACK
6
CONTINUOUS
10
107.6467770000000002
20
-55.3657769999999942
11
107.5656709999999947
21
-55.4199699999999993
0
LINE
8
BLACK
6
CONTINUOUS
10
107.5656709999999947
20
-55.4199699999999993
11
107.4699999999999989
21
-55.4389989999999955
0
LINE
8
BLACK
6
CONTINUOUS
10
107.4699999999999989
20
-55.4389989999999955
11
104.6199989999999929
21
-55.4390000000000001
0
LINE
8
BLACK
6
CONTINUOUS
10
104.6199989999999929
20
-55.4390000000000001
11
104.5243289999999945
21
-55.4199699999999993
0
LINE
8
BLACK
6
CONTINUOUS
10
104.5243289999999945
20
-55.4199699999999993
11
104.443222999999989
21
-55.3657769999999942
0
LINE
8
BLACK
6
CONTINUOUS
10
104.443222999999989
20
-55.3657769999999942
11
104.3890299999999911
21
-55.2846709999999959
0
LINE
8
BLACK
6
CONTINUOUS
10
104.3890299999999911
20
-55.2846709999999959
11
104.370001000000002
21
-55.1890000000000001
0
LINE
8
BLACK
6
CONTINUOUS
10
104.370001000000002
20
-55.1890000000000001
11
104.3699999999999903
21
-54.2889989999999969
0
LINE
8
BLACK
6
CONTINUOUS
10
104.3699999999999903
20
-54.2889989999999969
11
104.3890299999999911
21
-54.1933289999999985
0
LINE
8
BLACK
6
CONTINUOUS
10
104.3890299999999911
20
-54.1933289999999985
11
104.443222999999989
21
-54.1122230000000002
0
LINE
8
BLACK
6
CONTINUOUS
10
104.443222999999989
20
-54.1122230000000002
11
104.5243289999999945
21
-54.0580299999999951
0
LINE
8
BLACK
6
CONTINUOUS
10
104.5243289999999945
20
-54.0580299999999951
11
104.6199999999999903
21
-54.039000999999999
0
LINE
8
BLACK
6
CONTINUOUS
10
104.6199999999999903
20
-54.039000999999999
11
107.4700009999999963
21
-54.0389999999999944
0
LINE
8
BLACK
6
CONTINUOUS
10
107.4700009999999963
20
-54.0389999999999944
11
107.5656709999999947
21
-54.0580299999999951
0
LINE
8
BLACK
6
CONTINUOUS
10
85.0436709999999891
20
-52.4050299999999964
11
85.1247769999999946
21
-52.4592229999999944
0
LINE
8
BLACK
6
CONTINUOUS
10
85.1247769999999946
20
-52.4592229999999944
11
85.1789699999999925
21
-52.5403289999999998
0
LINE
8
BLACK
6
CONTINUOUS
10
85.1789699999999925
20
-52.5403289999999998
11
85.1979999999999933
21
-52.6359999999999957
0
LINE
8
BLACK
6
CONTINUOUS
10
85.1979999999999933
20
-52.6359999999999957
11
85.1979999999999933
21
-53.5359999999999943
0
LINE
8
BLACK
6
CONTINUOUS
10
85.1979999999999933
20
-53.5359999999999943
11
85.1789699999999925
21
-53.6316709999999972
0
LINE
8
BLACK
6
CONTINUOUS
10
85.1789699999999925
20
-53.6316709999999972
11
85.1247769999999946
21
-53.7127769999999956
0
LINE
8
BLACK
6
CONTINUOUS
10
85.1247769999999946
20
-53.7127769999999956
11
85.0436709999999891
21
-53.7669700000000006
0
LINE
8
BLACK
6
CONTINUOUS
10
85.0436709999999891
20
-53.7669700000000006
11
84.9479999999999933
21
-53.7859999999999943
0
LINE
8
BLACK
6
CONTINUOUS
10
84.9479999999999933
20
-53.7859999999999943
11
84.2479999999999905
21
-53.7859999999999943
0
LINE
8
BLACK
6
CONTINUOUS
10
84.2479999999999905
20
-53.7859999999999943
11
84.1523289999999946
21
-53.7669700000000006
0
LINE
8
BLACK
6
CONTINUOUS
10
84.1523289999999946
20
-53.7669700000000006
11
84.0712229999999892
21
-53.7127769999999956
0
LINE
8
BLACK
6
CONTINUOUS
10
84.0712229999999892
20
-53.7127769999999956
11
84.0170299999999912
21
-53.6316709999999972
0
LINE
8
BLACK
6
CONTINUOUS
10
84.0170299999999912
20
-53.6316709999999972
11
83.9979999999999905
21
-53.5359999999999943
0
LINE
8
BLACK
6
CONTINUOUS
10
83.9979999999999905
20
-53.5359999999999943
11
83.9979999999999905
21
-52.6359999999999957
0
LINE
8
BLACK
6
CONTINUOUS
10
83.9979999999999905
20
-52.6359999999999957
11
84.0170299999999912
21
-52.5403289999999998
0
LINE
8
BLACK
6
CONTINUOUS
10
84.0170299999999912
20
-52.5403289999999998
11
84.0712229999999892
21
-52.4592229999999944
0
LINE
8
BLACK
6
CONTINUOUS
10
84.0712229999999892
20
-52.4592229999999944
11
84.1523289999999946
21
-52.4050299999999964
0
LINE
8
BLACK
6
CONTINUOUS
10
84.1523289999999946
20
-52.4050299999999964
11
84.2479999999999905
21
-52.3859999999999957
0
LINE
8
BLACK
6
CONTINUOUS
10
84.2479999999999905
20
-52.3859999999999957
11
84.9479999999999933
21
-52.3859999999999957
0
LINE
8
BLACK
6
CONTINUOUS
10
84.9479999999999933
20
-52.3859999999999957
11
85.0436709999999891
21
-52.4050299999999964
0
LINE
8
BLACK
6
CONTINUOUS
10
87.0436709999999891
20
-52.4050299999999964
11
87.1247769999999946
21
-52.4592229999999944
0
LINE
8
BLACK
6
CONTINUOUS
10
87.1247769999999946
20
-52.4592229999999944
11
87.1789699999999925
21
-52.5403289999999998
0
LINE
8
BLACK
6
CONTINUOUS
10
87.1789699999999925
20
-52.5403289999999998
11
87.1979999999999933
21
-52.6359999999999957
0
LINE
8
BLACK
6
CONTINUOUS
10
87.1979999999999933
20
-52.6359999999999957
11
87.1979999999999933
21
-53.5359999999999943
0
LINE
8
BLACK
6
CONTINUOUS
10
87.1979999999999933
20
-53.5359999999999943
11
87.1789699999999925
21
-53.6316709999999972
0
LINE
8
BLACK
6
CONTINUOUS
10
87.1789699999999925
20
-53.6316709999999972
11
87.1247769999999946
21
-53.7127769999999956
0
LINE
8
BLACK
6
CONTINUOUS
10
87.1247769999999946
20
-53.7127769999999956
11
87.0436709999999891
21
-53.7669700000000006
0
LINE
8
BLACK
6
CONTINUOUS
10
87.0436709999999891
20
-53.7669700000000006
11
86.9479999999999933
21
-53.7859999999999943
0
LINE
8
BLACK
6
CONTINUOUS
10
86.9479999999999933
20
-53.7859999999999943
11
86.2479999999999905
21
-53.7859999999999943
0
LINE
8
BLACK
6
CONTINUOUS
10
86.2479999999999905
20
-53.7859999999999943
11
86.1523289999999946
21
-53.7669700000000006
0
LINE
8
BLACK
6
CONTINUOUS
10
86.1523289999999946
20
-53.7669700000000006
11
86.0712229999999892
21
-53.7127769999999956
0
LINE
8
BLACK
6
CONTINUOUS
10
86.0712229999999892
20
-53.7127769999999956
11
86.0170299999999912
21
-53.6316709999999972
0
LINE
8
BLACK
6
CONTINUOUS
10
86.0170299999999912
20
-53.6316709999999972
11
85.9979999999999905
21
-53.5359999999999943
0
LINE
8
BLACK
6
CONTINUOUS
10
85.9979999999999905
20
-53.5359999999999943
11
85.9979999999999905
21
-52.6359999999999957
0
LINE
8
BLACK
6
CONTINUOUS
10
85.9979999999999905
20
-52.6359999999999957
11
86.0170299999999912
21
-52.5403289999999998
0
LINE
8
BLACK
6
CONTINUOUS
10
86.0170299999999912
20
-52.5403289999999998
11
86.0712229999999892
21
-52.4592229999999944
0
LINE
8
BLACK
6
CONTINUOUS
10
86.0712229999999892
20
-52.4592229999999944
11
86.1523289999999946
21
-52.4050299999999964
0
LINE
8
BLACK
6
CONTINUOUS
10
86.1523289999999946
20
-52.4050299999999964
11
86.2479999999999905
21
-52.3859999999999957
0
LINE
8
BLACK
6
CONTINUOUS
10
86.2479999999999905
20
-52.3859999999999957
11
86.9479999999999933
21
-52.3859999999999957
0
LINE
8
BLACK
6
CONTINUOUS
10
86.9479999999999933
20
-52.3859999999999957
11
87.0436709999999891
21
-52.4050299999999964
0
LINE
8
BLACK
6
CONTINUOUS
10
84.9166709999999938
20
-49.8650299999999973
11
84.9977769999999992
21
-49.9192229999999952
0
LINE
8
BLACK
6
CONTINUOUS
10
84.9977769999999992
20
-49.9192229999999952
11
85.0519699999999972
21
-50.0003290000000007
0
LINE
8
BLACK
6
CONTINUOUS
10
85.0519699999999972
20
-50.0003290000000007
11
85.070999999999998
21
-50.0959999999999965
0
LINE
8
BLACK
6
CONTINUOUS
10
85.070999999999998
20
-50.0959999999999965
11
85.070999999999998
21
-50.9959999999999951
0
LINE
8
BLACK
6
CONTINUOUS
10
85.070999999999998
20
-50.9959999999999951
11
85.0519699999999972
21
-51.0916709999999981
0
LINE
8
BLACK
6
CONTINUOUS
10
85.0519699999999972
20
-51.0916709999999981
11
84.9977769999999992
21
-51.1727769999999964
0
LINE
8
BLACK
6
CONTINUOUS
10
84.9977769999999992
20
-51.1727769999999964
11
84.9166709999999938
21
-51.2269699999999943
0
LINE
8
BLACK
6
CONTINUOUS
10
84.9166709999999938
20
-51.2269699999999943
11
84.820999999999998
21
-51.2459999999999951
0
LINE
8
BLACK
6
CONTINUOUS
10
84.820999999999998
20
-51.2459999999999951
11
84.1209999999999951
21
-51.2459999999999951
0
LINE
8
BLACK
6
CONTINUOUS
10
84.1209999999999951
20
-51.2459999999999951
11
84.0253289999999993
21
-51.2269699999999943
0
LINE
8
BLACK
6
CONTINUOUS
10
84.0253289999999993
20
-51.2269699999999943
11
83.9442229999999938
21
-51.1727769999999964
0
LINE
8
BLACK
6
CONTINUOUS
10
83.9442229999999938
20
-51.1727769999999964
11
83.8900299999999959
21
-51.0916709999999981
0
LINE
8
BLACK
6
CONTINUOUS
10
83.8900299999999959
20
-51.0916709999999981
11
83.8709999999999951
21
-50.9959999999999951
0
LINE
8
BLACK
6
CONTINUOUS
10
83.8709999999999951
20
-50.9959999999999951
11
83.8709999999999951
21
-50.0959999999999965
0
LINE
8
BLACK
6
CONTINUOUS
10
83.8709999999999951
20
-50.0959999999999965
11
83.8900299999999959
21
-50.0003290000000007
0
LINE
8
BLACK
6
CONTINUOUS
10
83.8900299999999959
20
-50.0003290000000007
11
83.9442229999999938
21
-49.9192229999999952
0
LINE
8
BLACK
6
CONTINUOUS
10
83.9442229999999938
20
-49.9192229999999952
11
84.0253289999999993
21
-49.8650299999999973
0
LINE
8
BLACK
6
CONTINUOUS
10
84.0253289999999993
20
-49.8650299999999973
11
84.1209999999999951
21
-49.8459999999999965
0
LINE
8
BLACK
6
CONTINUOUS
10
84.1209999999999951
20
-49.8459999999999965
11
84.820999999999998
21
-49.8459999999999965
0
LINE
8
BLACK
6
CONTINUOUS
10
84.820999999999998
20
-49.8459999999999965
11
84.9166709999999938
21
-49.8650299999999973
0
LINE
8
BLACK
6
CONTINUOUS
10
86.9166709999999938
20
-49.8650299999999973
11
86.9977769999999992
21
-49.9192229999999952
0
LINE
8
BLACK
6
CONTINUOUS
10
86.9977769999999992
20
-49.9192229999999952
11
87.0519699999999972
21
-50.0003290000000007
0
LINE
8
BLACK
6
CONTINUOUS
10
87.0519699999999972
20
-50.0003290000000007
11
87.070999999999998
21
-50.0959999999999965
0
LINE
8
BLACK
6
CONTINUOUS
10
87.070999999999998
20
-50.0959999999999965
11
87.070999999999998
21
-50.9959999999999951
0
LINE
8
BLACK
6
CONTINUOUS
10
87.070999999999998
20
-50.9959999999999951
11
87.0519699999999972
21
-51.0916709999999981
0
LINE
8
BLACK
6
CONTINUOUS
10
87.0519699999999972
20
-51.0916709999999981
11
86.9977769999999992
21
-51.1727769999999964
0
LINE
8
BLACK
6
CONTINUOUS
10
86.9977769999999992
20
-51.1727769999999964
11
86.9166709999999938
21
-51.2269699999999943
0
LINE
8
BLACK
6
CONTINUOUS
10
86.9166709999999938
20
-51.2269699999999943
11
86.820999999999998
21
-51.2459999999999951
0
LINE
8
BLACK
6
CONTINUOUS
10
86.820999999999998
20
-51.2459999999999951
11
86.1209999999999951
21
-51.2459999999999951
0
LINE
8
BLACK
6
CONTINUOUS
10
86.1209999999999951
20
-51.2459999999999951
11
86.0253289999999993
21
-51.2269699999999943
0
LINE
8
BLACK
6
CONTINUOUS
10
86.0253289999999993
20
-51.2269699999999943
11
85.9442229999999938
21
-51.1727769999999964
0
LINE
8
BLACK
6
CONTINUOUS
10
85.9442229999999938
20
-51.1727769999999964
11
85.8900299999999959
21
-51.0916709999999981
0
LINE
8
BLACK
6
CONTINUOUS
10
85.8900299999999959
20
-51.0916709999999981
11
85.8709999999999951
21
-50.9959999999999951
0
LINE
8
BLACK
6
CONTINUOUS
10
85.8709999999999951
20
-50.9959999999999951
11
85.8709999999999951
21
-50.0959999999999965
0
LINE
8
BLACK
6
CONTINUOUS
10
85.8709999999999951
20
-50.0959999999999965
11
85.8900299999999959
21
-50.0003290000000007
0
LINE
8
BLACK
6
CONTINUOUS
10
85.8900299999999959
20
-50.0003290000000007
11
85.9442229999999938
21
-49.9192229999999952
0
LINE
8
BLACK
6
CONTINUOUS
10
85.9442229999999938
20
-49.9192229999999952
11
86.0253289999999993
21
-49.8650299999999973
0
LINE
8
BLACK
6
CONTINUOUS
10
86.0253289999999993
20
-49.8650299999999973
11
86.1209999999999951
21
-49.8459999999999965
0
LINE
8
BLACK
6
CONTINUOUS
10
86.1209999999999951
20
-49.8459999999999965
11
86.820999999999998
21
-49.8459999999999965
0
LINE
8
BLACK
6
CONTINUOUS
10
86.820999999999998
20
-49.8459999999999965
11
86.9166709999999938
21
-49.8650299999999973
0
LINE
8
BLACK
6
CONTINUOUS
10
107.5656709999999947
20
-47.9580300000000008
11
107.6467770000000002
21
-48.0122229999999988
0
LINE
8
BLACK
6
CONTINUOUS
10
107.6467770000000002
20
-48.0122229999999988
11
107.7009699999999981
21
-48.0933289999999971
0
LINE
8
BLACK
6
CONTINUOUS
10
107.7009699999999981
20
-48.0933289999999971
11
107.7199990000000014
21
-48.1890000000000001
0
LINE
8
BLACK
6
CONTINUOUS
10
107.7199990000000014
20
-48.1890000000000001
11
107.7199999999999989
21
-49.0890009999999961
0
LINE
8
BLACK
6
CONTINUOUS
10
107.7199999999999989
20
-49.0890009999999961
11
107.7009699999999981
21
-49.1846709999999945
0
LINE
8
BLACK
6
CONTINUOUS
10
107.7009699999999981
20
-49.1846709999999945
11
107.6467770000000002
21
-49.2657769999999999
0
LINE
8
BLACK
6
CONTINUOUS
10
107.6467770000000002
20
-49.2657769999999999
11
107.5656709999999947
21
-49.3199699999999979
0
LINE
8
BLACK
6
CONTINUOUS
10
107.5656709999999947
20
-49.3199699999999979
11
107.4699999999999989
21
-49.3389990000000012
0
LINE
8
BLACK
6
CONTINUOUS
10
107.4699999999999989
20
-49.3389990000000012
11
104.6199989999999929
21
-49.3389999999999986
0
LINE
8
BLACK
6
CONTINUOUS
10
104.6199989999999929
20
-49.3389999999999986
11
104.5243289999999945
21
-49.3199699999999979
0
LINE
8
BLACK
6
CONTINUOUS
10
104.5243289999999945
20
-49.3199699999999979
11
104.443222999999989
21
-49.2657769999999999
0
LINE
8
BLACK
6
CONTINUOUS
10
104.443222999999989
20
-49.2657769999999999
11
104.3890299999999911
21
-49.1846709999999945
0
LINE
8
BLACK
6
CONTINUOUS
10
104.3890299999999911
20
-49.1846709999999945
11
104.370001000000002
21
-49.0889999999999986
0
LINE
8
BLACK
6
CONTINUOUS
10
104.370001000000002
20
-49.0889999999999986
11
104.3699999999999903
21
-48.1889989999999955
0
LINE
8
BLACK
6
CONTINUOUS
10
104.3699999999999903
20
-48.1889989999999955
11
104.3890299999999911
21
-48.0933289999999971
0
LINE
8
BLACK
6
CONTINUOUS
10
104.3890299999999911
20
-48.0933289999999971
11
104.443222999999989
21
-48.0122229999999988
0
LINE
8
BLACK
6
CONTINUOUS
10
104.443222999999989
20
-48.0122229999999988
11
104.5243289999999945
21
-47.9580300000000008
0
LINE
8
BLACK
6
CONTINUOUS
10
104.5243289999999945
20
-47.9580300000000008
11
104.6199999999999903
21
-47.9390009999999975
0
LINE
8
BLACK
6
CONTINUOUS
10
104.6199999999999903
20
-47.9390009999999975
11
107.4700009999999963
21
-47.9390000000000001
0
LINE
8
BLACK
6
CONTINUOUS
10
107.4700009999999963
20
-47.9390000000000001
11
107.5656709999999947
21
-47.9580300000000008
0
LINE
8
BLACK
6
CONTINUOUS
10
96.8396709999999956
20
-47.7330299999999994
11
96.9207770000000011
21
-47.7872229999999973
0
LINE
8
BLACK
6
CONTINUOUS
10
96.9207770000000011
20
-47.7872229999999973
11
96.974969999999999
21
-47.8683289999999957
0
LINE
8
BLACK
6
CONTINUOUS
10
96.974969999999999
20
-47.8683289999999957
11
96.9939999999999998
21
-47.9639999999999986
0
LINE
8
BLACK
6
CONTINUOUS
10
96.9939999999999998
20
-47.9639999999999986
11
96.9939999999999998
21
-49.0640000000000001
0
LINE
8
BLACK
6
CONTINUOUS
10
96.9939999999999998
20
-49.0640000000000001
11
96.974969999999999
21
-49.1596709999999959
0
LINE
8
BLACK
6
CONTINUOUS
10
96.974969999999999
20
-49.1596709999999959
11
96.9207770000000011
21
-49.2407769999999942
0
LINE
8
BLACK
6
CONTINUOUS
10
96.9207770000000011
20
-49.2407769999999942
11
96.8396709999999956
21
-49.2949699999999993
0
LINE
8
BLACK
6
CONTINUOUS
10
96.8396709999999956
20
-49.2949699999999993
11
96.7439999999999998
21
-49.3140000000000001
0
LINE
8
BLACK
6
CONTINUOUS
10
96.7439999999999998
20
-49.3140000000000001
11
93.7439999999999998
21
-49.3140000000000001
0
LINE
8
BLACK
6
CONTINUOUS
10
93.7439999999999998
20
-49.3140000000000001
11
93.6483289999999897
21
-49.2949699999999993
0
LINE
8
BLACK
6
CONTINUOUS
10
93.6483289999999897
20
-49.2949699999999993
11
93.5672229999999985
21
-49.2407769999999942
0
LINE
8
BLACK
6
CONTINUOUS
10
93.5672229999999985
20
-49.2407769999999942
11
93.5130300000000005
21
-49.1596709999999959
0
LINE
8
BLACK
6
CONTINUOUS
10
93.5130300000000005
20
-49.1596709999999959
11
93.4939999999999998
21
-49.0640000000000001
0
LINE
8
BLACK
6
CONTINUOUS
10
93.4939999999999998
20
-49.0640000000000001
11
93.4939999999999998
21
-47.9639999999999986
0
LINE
8
BLACK
6
CONTINUOUS
10
93.4939999999999998
20
-47.9639999999999986
11
93.5130300000000005
21
-47.8683289999999957
0
LINE
8
BLACK
6
CONTINUOUS
10
93.5130300000000005
20
-47.8683289999999957
11
93.5672229999999985
21
-47.7872229999999973
0
LINE
8
BLACK
6
CONTINUOUS
10
93.5672229999999985
20
-47.7872229999999973
11
93.6483289999999897
21
-47.7330299999999994
0
LINE
8
BLACK
6
CONTINUOUS
10
93.6483289999999897
20
-47.7330299999999994
11
93.7439999999999998
21
-47.7139999999999986
0
LINE
8
BLACK
6
CONTINUOUS
10
93.7439999999999998
20
-47.7139999999999986
11
96.7439999999999998
21
-47.7139999999999986
0
LINE
8
BLACK
6
CONTINUOUS
10
96.7439999999999998
20
-47.7139999999999986
11
96.8396709999999956
21
-47.7330299999999994
0
LINE
8
BLACK
6
CONTINUOUS
10
102.4396709999999899
20
-47.7330299999999994
11
102.5207769999999954
21
-47.7872229999999973
0
LINE
8
BLACK
6
CONTINUOUS
10
102.5207769999999954
20
-47.7872229999999973
11
102.5749699999999933
21
-47.8683289999999957
0
LINE
8
BLACK
6
CONTINUOUS
10
102.5749699999999933
20
-47.8683289999999957
11
102.5939999999999941
21
-47.9639999999999986
0
LINE
8
BLACK
6
CONTINUOUS
10
102.5939999999999941
20
-47.9639999999999986
11
102.5939999999999941
21
-49.0640000000000001
0
LINE
8
BLACK
6
CONTINUOUS
10
102.5939999999999941
20
-49.0640000000000001
11
102.5749699999999933
21
-49.1596709999999959
0
LINE
8
BLACK
6
CONTINUOUS
10
102.5749699999999933
20
-49.1596709999999959
11
102.5207769999999954
21
-49.2407769999999942
0
LINE
8
BLACK
6
CONTINUOUS
10
102.5207769999999954
20
-49.2407769999999942
11
102.4396709999999899
21
-49.2949699999999993
0
LINE
8
BLACK
6
CONTINUOUS
10
102.4396709999999899
20
-49.2949699999999993
11
102.3439999999999941
21
-49.3140000000000001
0
LINE
8
BLACK
6
CONTINUOUS
10
102.3439999999999941
20
-49.3140000000000001
11
99.3439999999999941
21
-49.3140000000000001
0
LINE
8
BLACK
6
CONTINUOUS
10
99.3439999999999941
20
-49.3140000000000001
11
99.2483289999999982
21
-49.2949699999999993
0
LINE
8
BLACK
6
CONTINUOUS
10
99.2483289999999982
20
-49.2949699999999993
11
99.1672229999999928
21
-49.2407769999999942
0
LINE
8
BLACK
6
CONTINUOUS
10
99.1672229999999928
20
-49.2407769999999942
11
99.1130299999999949
21
-49.1596709999999959
0
LINE
8
BLACK
6
CONTINUOUS
10
99.1130299999999949
20
-49.1596709999999959
11
99.0939999999999941
21
-49.0640000000000001
0
LINE
8
BLACK
6
CONTINUOUS
10
99.0939999999999941
20
-49.0640000000000001
11
99.0939999999999941
21
-47.9639999999999986
0
LINE
8
BLACK
6
CONTINUOUS
10
99.0939999999999941
20
-47.9639999999999986
11
99.1130299999999949
21
-47.8683289999999957
0
LINE
8
BLACK
6
CONTINUOUS
10
99.1130299999999949
20
-47.8683289999999957
11
99.1672229999999928
21
-47.7872229999999973
0
LINE
8
BLACK
6
CONTINUOUS
10
99.1672229999999928
20
-47.7872229999999973
11
99.2483289999999982
21
-47.7330299999999994
0
LINE
8
BLACK
6
CONTINUOUS
10
99.2483289999999982
20
-47.7330299999999994
11
99.3439999999999941
21
-47.7139999999999986
0
LINE
8
BLACK
6
CONTINUOUS
10
99.3439999999999941
20
-47.7139999999999986
11
102.3439999999999941
21
-47.7139999999999986
0
LINE
8
BLACK
6
CONTINUOUS
10
102.3439999999999941
20
-47.7139999999999986
11
102.4396709999999899
21
-47.7330299999999994
0
LINE
8
BLACK
6
CONTINUOUS
10
88.8696709999999968
20
-47.8080299999999951
11
88.9507770000000022
21
-47.8622230000000002
0
LINE
8
BLACK
6
CONTINUOUS
10
88.9507770000000022
20
-47.8622230000000002
11
89.0049700000000001
21
-47.9433289999999985
0
LINE
8
BLACK
6
CONTINUOUS
10
89.0049700000000001
20
-47.9433289999999985
11
89.0240000000000009
21
-48.0389999999999944
0
LINE
8
BLACK
6
CONTINUOUS
10
89.0240000000000009
20
-48.0389999999999944
11
89.0240000000000009
21
-48.9889999999999972
0
LINE
8
BLACK
6
CONTINUOUS
10
89.0240000000000009
20
-48.9889999999999972
11
89.0049700000000001
21
-49.0846710000000002
0
LINE
8
BLACK
6
CONTINUOUS
10
89.0049700000000001
20
-49.0846710000000002
11
88.9507770000000022
21
-49.1657769999999985
0
LINE
8
BLACK
6
CONTINUOUS
10
88.9507770000000022
20
-49.1657769999999985
11
88.8696709999999968
21
-49.2199699999999964
0
LINE
8
BLACK
6
CONTINUOUS
10
88.8696709999999968
20
-49.2199699999999964
11
88.7740000000000009
21
-49.2389999999999972
0
LINE
8
BLACK
6
CONTINUOUS
10
88.7740000000000009
20
-49.2389999999999972
11
88.2740000000000009
21
-49.2389999999999972
0
LINE
8
BLACK
6
CONTINUOUS
10
88.2740000000000009
20
-49.2389999999999972
11
88.1783289999999909
21
-49.2199699999999964
0
LINE
8
BLACK
6
CONTINUOUS
10
88.1783289999999909
20
-49.2199699999999964
11
88.0972229999999996
21
-49.1657769999999985
0
LINE
8
BLACK
6
CONTINUOUS
10
88.0972229999999996
20
-49.1657769999999985
11
88.0430300000000017
21
-49.0846710000000002
0
LINE
8
BLACK
6
CONTINUOUS
10
88.0430300000000017
20
-49.0846710000000002
11
88.0240000000000009
21
-48.9889999999999972
0
LINE
8
BLACK
6
CONTINUOUS
10
88.0240000000000009
20
-48.9889999999999972
11
88.0240000000000009
21
-48.0389999999999944
0
LINE
8
BLACK
6
CONTINUOUS
10
88.0240000000000009
20
-48.0389999999999944
11
88.0430300000000017
21
-47.9433289999999985
0
LINE
8
BLACK
6
CONTINUOUS
10
88.0430300000000017
20
-47.9433289999999985
11
88.0972229999999996
21
-47.8622230000000002
0
LINE
8
BLACK
6
CONTINUOUS
10
88.0972229999999996
20
-47.8622230000000002
11
88.1783289999999909
21
-47.8080299999999951
0
LINE
8
BLACK
6
CONTINUOUS
10
88.1783289999999909
20
-47.8080299999999951
11
88.2740000000000009
21
-47.7889999999999944
0
LINE
8
BLACK
6
CONTINUOUS
10
88.2740000000000009
20
-47.7889999999999944
11
88.7740000000000009
21
-47.7889999999999944
0
LINE
8
BLACK
6
CONTINUOUS
10
88.7740000000000009
20
-47.7889999999999944
11
88.8696709999999968
21
-47.8080299999999951
0
LINE
8
BLACK
6
CONTINUOUS
10
90.7696710000000024
20
-47.8080299999999951
11
90.8507769999999937
21
-47.8622230000000002
0
LINE
8
BLACK
6
CONTINUOUS
10
90.8507769999999937
20
-47.8622230000000002
11
90.9049699999999916
21
-47.9433289999999985
0
LINE
8
BLACK
6
CONTINUOUS
10
90.9049699999999916
20
-47.9433289999999985
11
90.9239999999999924
21
-48.0389999999999944
0
LINE
8
BLACK
6
CONTINUOUS
10
90.9239999999999924
20
-48.0389999999999944
11
90.9239999999999924
21
-48.9889999999999972
0
LINE
8
BLACK
6
CONTINUOUS
10
90.9239999999999924
20
-48.9889999999999972
11
90.9049699999999916
21
-49.0846710000000002
0
LINE
8
BLACK
6
CONTINUOUS
10
90.9049699999999916
20
-49.0846710000000002
11
90.8507769999999937
21
-49.1657769999999985
0
LINE
8
BLACK
6
CONTINUOUS
10
90.8507769999999937
20
-49.1657769999999985
11
90.7696710000000024
21
-49.2199699999999964
0
LINE
8
BLACK
6
CONTINUOUS
10
90.7696710000000024
20
-49.2199699999999964
11
90.6739999999999924
21
-49.2389999999999972
0
LINE
8
BLACK
6
CONTINUOUS
10
90.6739999999999924
20
-49.2389999999999972
11
90.1739999999999924
21
-49.2389999999999972
0
LINE
8
BLACK
6
CONTINUOUS
10
90.1739999999999924
20
-49.2389999999999972
11
90.0783289999999965
21
-49.2199699999999964
0
LINE
8
BLACK
6
CONTINUOUS
10
90.0783289999999965
20
-49.2199699999999964
11
89.9972229999999911
21
-49.1657769999999985
0
LINE
8
BLACK
6
CONTINUOUS
10
89.9972229999999911
20
-49.1657769999999985
11
89.9430299999999932
21
-49.0846710000000002
0
LINE
8
BLACK
6
CONTINUOUS
10
89.9430299999999932
20
-49.0846710000000002
11
89.9239999999999924
21
-48.9889999999999972
0
LINE
8
BLACK
6
CONTINUOUS
10
89.9239999999999924
20
-48.9889999999999972
11
89.9239999999999924
21
-48.0389999999999944
0
LINE
8
BLACK
6
CONTINUOUS
10
89.9239999999999924
20
-48.0389999999999944
11
89.9430299999999932
21
-47.9433289999999985
0
LINE
8
BLACK
6
CONTINUOUS
10
89.9430299999999932
20
-47.9433289999999985
11
89.9972229999999911
21
-47.8622230000000002
0
LINE
8
BLACK
6
CONTINUOUS
10
89.9972229999999911
20
-47.8622230000000002
11
90.0783289999999965
21
-47.8080299999999951
0
LINE
8
BLACK
6
CONTINUOUS
10
90.0783289999999965
20
-47.8080299999999951
11
90.1739999999999924
21
-47.7889999999999944
0
LINE
8
BLACK
6
CONTINUOUS
10
90.1739999999999924
20
-47.7889999999999944
11
90.6739999999999924
21
-47.7889999999999944
0
LINE
8
BLACK
6
CONTINUOUS
10
90.6739999999999924
20
-47.7889999999999944
11
90.7696710000000024
21
-47.8080299999999951
0
LINE
8
BLACK
6
CONTINUOUS
10
84.9166709999999938
20
-47.7060299999999984
11
84.9977769999999992
21
-47.7602229999999963
0
LINE
8
BLACK
6
CONTINUOUS
10
84.9977769999999992
20
-47.7602229999999963
11
85.0519699999999972
21
-47.8413289999999947
0
LINE
8
BLACK
6
CONTINUOUS
10
85.0519699999999972
20
-47.8413289999999947
11
85.070999999999998
21
-47.9369999999999976
0
LINE
8
BLACK
6
CONTINUOUS
10
85.070999999999998
20
-47.9369999999999976
11
85.070999999999998
21
-48.8369999999999962
0
LINE
8
BLACK
6
CONTINUOUS
10
85.070999999999998
20
-48.8369999999999962
11
85.0519699999999972
21
-48.9326709999999991
0
LINE
8
BLACK
6
CONTINUOUS
10
85.0519699999999972
20
-48.9326709999999991
11
84.9977769999999992
21
-49.0137769999999975
0
LINE
8
BLACK
6
CONTINUOUS
10
84.9977769999999992
20
-49.0137769999999975
11
84.9166709999999938
21
-49.0679699999999954
0
LINE
8
BLACK
6
CONTINUOUS
10
84.9166709999999938
20
-49.0679699999999954
11
84.820999999999998
21
-49.0869999999999962
0
LINE
8
BLACK
6
CONTINUOUS
10
84.820999999999998
20
-49.0869999999999962
11
84.1209999999999951
21
-49.0869999999999962
0
LINE
8
BLACK
6
CONTINUOUS
10
84.1209999999999951
20
-49.0869999999999962
11
84.0253289999999993
21
-49.0679699999999954
0
LINE
8
BLACK
6
CONTINUOUS
10
84.0253289999999993
20
-49.0679699999999954
11
83.9442229999999938
21
-49.0137769999999975
0
LINE
8
BLACK
6
CONTINUOUS
10
83.9442229999999938
20
-49.0137769999999975
11
83.8900299999999959
21
-48.9326709999999991
0
LINE
8
BLACK
6
CONTINUOUS
10
83.8900299999999959
20
-48.9326709999999991
11
83.8709999999999951
21
-48.8369999999999962
0
LINE
8
BLACK
6
CONTINUOUS
10
83.8709999999999951
20
-48.8369999999999962
11
83.8709999999999951
21
-47.9369999999999976
0
LINE
8
BLACK
6
CONTINUOUS
10
83.8709999999999951
20
-47.9369999999999976
11
83.8900299999999959
21
-47.8413289999999947
0
LINE
8
BLACK
6
CONTINUOUS
10
83.8900299999999959
20
-47.8413289999999947
11
83.9442229999999938
21
-47.7602229999999963
0
LINE
8
BLACK
6
CONTINUOUS
10
83.9442229999999938
20
-47.7602229999999963
11
84.0253289999999993
21
-47.7060299999999984
0
LINE
8
BLACK
6
CONTINUOUS
10
84.0253289999999993
20
-47.7060299999999984
11
84.1209999999999951
21
-47.6869999999999976
0
LINE
8
BLACK
6
CONTINUOUS
10
84.1209999999999951
20
-47.6869999999999976
11
84.820999999999998
21
-47.6869999999999976
0
LINE
8
BLACK
6
CONTINUOUS
10
84.820999999999998
20
-47.6869999999999976
11
84.9166709999999938
21
-47.7060299999999984
0
LINE
8
BLACK
6
CONTINUOUS
10
86.9166709999999938
20
-47.7060299999999984
11
86.9977769999999992
21
-47.7602229999999963
0
LINE
8
BLACK
6
CONTINUOUS
10
86.9977769999999992
20
-47.7602229999999963
11
87.0519699999999972
21
-47.8413289999999947
0
LINE
8
BLACK
6
CONTINUOUS
10
87.0519699999999972
20
-47.8413289999999947
11
87.070999999999998
21
-47.9369999999999976
0
LINE
8
BLACK
6
CONTINUOUS
10
87.070999999999998
20
-47.9369999999999976
11
87.070999999999998
21
-48.8369999999999962
0
LINE
8
BLACK
6
CONTINUOUS
10
87.070999999999998
20
-48.8369999999999962
11
87.0519699999999972
21
-48.9326709999999991
0
LINE
8
BLACK
6
CONTINUOUS
10
87.0519699999999972
20
-48.9326709999999991
11
86.9977769999999992
21
-49.0137769999999975
0
LINE
8
BLACK
6
CONTINUOUS
10
86.9977769999999992
20
-49.0137769999999975
11
86.9166709999999938
21
-49.0679699999999954
0
LINE
8
BLACK
6
CONTINUOUS
10
86.9166709999999938
20
-49.0679699999999954
11
86.820999999999998
21
-49.0869999999999962
0
LINE
8
BLACK
6
CONTINUOUS
10
86.820999999999998
20
-49.0869999999999962
11
86.1209999999999951
21
-49.0869999999999962
0
LINE
8
BLACK
6
CONTINUOUS
10
86.1209999999999951
20
-49.0869999999999962
11
86.0253289999999993
21
-49.0679699999999954
0
LINE
8
BLACK
6
CONTINUOUS
10
86.0253289999999993
20
-49.0679699999999954
11
85.9442229999999938
21
-49.0137769999999975
0
LINE
8
BLACK
6
CONTINUOUS
10
85.9442229999999938
20
-49.0137769999999975
11
85.8900299999999959
21
-48.9326709999999991
0
LINE
8
BLACK
6
CONTINUOUS
10
85.8900299999999959
20
-48.9326709999999991
11
85.8709999999999951
21
-48.8369999999999962
0
LINE
8
BLACK
6
CONTINUOUS
10
85.8709999999999951
20
-48.8369999999999962
11
85.8709999999999951
21
-47.9369999999999976
0
LINE
8
BLACK
6
CONTINUOUS
10
85.8709999999999951
20
-47.9369999999999976
11
85.8900299999999959
21
-47.8413289999999947
0
LINE
8
BLACK
6
CONTINUOUS
10
85.8900299999999959
20
-47.8413289999999947
11
85.9442229999999938
21
-47.7602229999999963
0
LINE
8
BLACK
6
CONTINUOUS
10
85.9442229999999938
20
-47.7602229999999963
11
86.0253289999999993
21
-47.7060299999999984
0
LINE
8
BLACK
6
CONTINUOUS
10
86.0253289999999993
20
-47.7060299999999984
11
86.1209999999999951
21
-47.6869999999999976
0
LINE
8
BLACK
6
CONTINUOUS
10
86.1209999999999951
20
-47.6869999999999976
11
86.820999999999998
21
-47.6869999999999976
0
LINE
8
BLACK
6
CONTINUOUS
10
86.820999999999998
20
-47.6869999999999976
11
86.9166709999999938
21
-47.7060299999999984
0
LINE
8
BLACK
6
CONTINUOUS
10
88.8536709999999914
20
-45.6740299999999948
11
88.9347769999999969
21
-45.7282229999999998
0
LINE
8
BLACK
6
CONTINUOUS
10
88.9347769999999969
20
-45.7282229999999998
11
88.9889699999999948
21
-45.8093289999999982
0
LINE
8
BLACK
6
CONTINUOUS
10
88.9889699999999948
20
-45.8093289999999982
11
89.0079999999999956
21
-45.9050000000000011
0
LINE
8
BLACK
6
CONTINUOUS
10
89.0079999999999956
20
-45.9050000000000011
11
89.0079999999999956
21
-46.8049999999999997
0
LINE
8
BLACK
6
CONTINUOUS
10
89.0079999999999956
20
-46.8049999999999997
11
88.9889699999999948
21
-46.9006709999999956
0
LINE
8
BLACK
6
CONTINUOUS
10
88.9889699999999948
20
-46.9006709999999956
11
88.9347769999999969
21
-46.981777000000001
0
LINE
8
BLACK
6
CONTINUOUS
10
88.9347769999999969
20
-46.981777000000001
11
88.8536709999999914
21
-47.0359699999999989
0
LINE
8
BLACK
6
CONTINUOUS
10
88.8536709999999914
20
-47.0359699999999989
11
88.7579999999999956
21
-47.0549999999999997
0
LINE
8
BLACK
6
CONTINUOUS
10
88.7579999999999956
20
-47.0549999999999997
11
88.0579999999999927
21
-47.0549999999999997
0
LINE
8
BLACK
6
CONTINUOUS
10
88.0579999999999927
20
-47.0549999999999997
11
87.9623289999999969
21
-47.0359699999999989
0
LINE
8
BLACK
6
CONTINUOUS
10
87.9623289999999969
20
-47.0359699999999989
11
87.8812229999999914
21
-46.981777000000001
0
LINE
8
BLACK
6
CONTINUOUS
10
87.8812229999999914
20
-46.981777000000001
11
87.8270299999999935
21
-46.9006709999999956
0
LINE
8
BLACK
6
CONTINUOUS
10
87.8270299999999935
20
-46.9006709999999956
11
87.8079999999999927
21
-46.8049999999999997
0
LINE
8
BLACK
6
CONTINUOUS
10
87.8079999999999927
20
-46.8049999999999997
11
87.8079999999999927
21
-45.9050000000000011
0
LINE
8
BLACK
6
CONTINUOUS
10
87.8079999999999927
20
-45.9050000000000011
11
87.8270299999999935
21
-45.8093289999999982
0
LINE
8
BLACK
6
CONTINUOUS
10
87.8270299999999935
20
-45.8093289999999982
11
87.8812229999999914
21
-45.7282229999999998
0
LINE
8
BLACK
6
CONTINUOUS
10
87.8812229999999914
20
-45.7282229999999998
11
87.9623289999999969
21
-45.6740299999999948
0
LINE
8
BLACK
6
CONTINUOUS
10
87.9623289999999969
20
-45.6740299999999948
11
88.0579999999999927
21
-45.6550000000000011
0
LINE
8
BLACK
6
CONTINUOUS
10
88.0579999999999927
20
-45.6550000000000011
11
88.7579999999999956
21
-45.6550000000000011
0
LINE
8
BLACK
6
CONTINUOUS
10
88.7579999999999956
20
-45.6550000000000011
11
88.8536709999999914
21
-45.6740299999999948
0
LINE
8
BLACK
6
CONTINUOUS
10
90.8536709999999914
20
-45.6740299999999948
11
90.9347769999999969
21
-45.7282229999999998
0
LINE
8
BLACK
6
CONTINUOUS
10
90.9347769999999969
20
-45.7282229999999998
11
90.9889699999999948
21
-45.8093289999999982
0
LINE
8
BLACK
6
CONTINUOUS
10
90.9889699999999948
20
-45.8093289999999982
11
91.0079999999999956
21
-45.9050000000000011
0
LINE
8
BLACK
6
CONTINUOUS
10
91.0079999999999956
20
-45.9050000000000011
11
91.0079999999999956
21
-46.8049999999999997
0
LINE
8
BLACK
6
CONTINUOUS
10
91.0079999999999956
20
-46.8049999999999997
11
90.9889699999999948
21
-46.9006709999999956
0
LINE
8
BLACK
6
CONTINUOUS
10
90.9889699999999948
20
-46.9006709999999956
11
90.9347769999999969
21
-46.981777000000001
0
LINE
8
BLACK
6
CONTINUOUS
10
90.9347769999999969
20
-46.981777000000001
11
90.8536709999999914
21
-47.0359699999999989
0
LINE
8
BLACK
6
CONTINUOUS
10
90.8536709999999914
20
-47.0359699999999989
11
90.7579999999999956
21
-47.0549999999999997
0
LINE
8
BLACK
6
CONTINUOUS
10
90.7579999999999956
20
-47.0549999999999997
11
90.0579999999999927
21
-47.0549999999999997
0
LINE
8
BLACK
6
CONTINUOUS
10
90.0579999999999927
20
-47.0549999999999997
11
89.9623289999999969
21
-47.0359699999999989
0
LINE
8
BLACK
6
CONTINUOUS
10
89.9623289999999969
20
-47.0359699999999989
11
89.8812229999999914
21
-46.981777000000001
0
LINE
8
BLACK
6
CONTINUOUS
10
89.8812229999999914
20
-46.981777000000001
11
89.8270299999999935
21
-46.9006709999999956
0
LINE
8
BLACK
6
CONTINUOUS
10
89.8270299999999935
20
-46.9006709999999956
11
89.8079999999999927
21
-46.8049999999999997
0
LINE
8
BLACK
6
CONTINUOUS
10
89.8079999999999927
20
-46.8049999999999997
11
89.8079999999999927
21
-45.9050000000000011
0
LINE
8
BLACK
6
CONTINUOUS
10
89.8079999999999927
20
-45.9050000000000011
11
89.8270299999999935
21
-45.8093289999999982
0
LINE
8
BLACK
6
CONTINUOUS
10
89.8270299999999935
20
-45.8093289999999982
11
89.8812229999999914
21
-45.7282229999999998
0
LINE
8
BLACK
6
CONTINUOUS
10
89.8812229999999914
20
-45.7282229999999998
11
89.9623289999999969
21
-45.6740299999999948
0
LINE
8
BLACK
6
CONTINUOUS
10
89.9623289999999969
20
-45.6740299999999948
11
90.0579999999999927
21
-45.6550000000000011
0
LINE
8
BLACK
6
CONTINUOUS
10
90.0579999999999927
20
-45.6550000000000011
11
90.7579999999999956
21
-45.6550000000000011
0
LINE
8
BLACK
6
CONTINUOUS
10
90.7579999999999956
20
-45.6550000000000011
11
90.8536709999999914
21
-45.6740299999999948
0
LINE
8
BLACK
6
CONTINUOUS
10
84.7896709999999985
20
-45.420029999999997
11
84.8707769999999897
21
-45.474222999999995
0
LINE
8
BLACK
6
CONTINUOUS
10
84.8707769999999897
20
-45.474222999999995
11
84.9249700000000018
21
-45.5553290000000004
0
LINE
8
BLACK
6
CONTINUOUS
10
84.9249700000000018
20
-45.5553290000000004
11
84.9440000000000026
21
-45.6509999999999962
0
LINE
8
BLACK
6
CONTINUOUS
10
84.9440000000000026
20
-45.6509999999999962
11
84.9440000000000026
21
-46.5509999999999948
0
LINE
8
BLACK
6
CONTINUOUS
10
84.9440000000000026
20
-46.5509999999999948
11
84.9249700000000018
21
-46.6466709999999978
0
LINE
8
BLACK
6
CONTINUOUS
10
84.9249700000000018
20
-46.6466709999999978
11
84.8707769999999897
21
-46.7277769999999961
0
LINE
8
BLACK
6
CONTINUOUS
10
84.8707769999999897
20
-46.7277769999999961
11
84.7896709999999985
21
-46.7819700000000012
0
LINE
8
BLACK
6
CONTINUOUS
10
84.7896709999999985
20
-46.7819700000000012
11
84.6940000000000026
21
-46.8009999999999948
0
LINE
8
BLACK
6
CONTINUOUS
10
84.6940000000000026
20
-46.8009999999999948
11
83.9939999999999998
21
-46.8009999999999948
0
LINE
8
BLACK
6
CONTINUOUS
10
83.9939999999999998
20
-46.8009999999999948
11
83.8983289999999897
21
-46.7819700000000012
0
LINE
8
BLACK
6
CONTINUOUS
10
83.8983289999999897
20
-46.7819700000000012
11
83.8172229999999985
21
-46.7277769999999961
0
LINE
8
BLACK
6
CONTINUOUS
10
83.8172229999999985
20
-46.7277769999999961
11
83.7630300000000005
21
-46.6466709999999978
0
LINE
8
BLACK
6
CONTINUOUS
10
83.7630300000000005
20
-46.6466709999999978
11
83.7439999999999998
21
-46.5509999999999948
0
LINE
8
BLACK
6
CONTINUOUS
10
83.7439999999999998
20
-46.5509999999999948
11
83.7439999999999998
21
-45.6509999999999962
0
LINE
8
BLACK
6
CONTINUOUS
10
83.7439999999999998
20
-45.6509999999999962
11
83.7630300000000005
21
-45.5553290000000004
0
LINE
8
BLACK
6
CONTINUOUS
10
83.7630300000000005
20
-45.5553290000000004
11
83.8172229999999985
21
-45.474222999999995
0
LINE
8
BLACK
6
CONTINUOUS
10
83.8172229999999985
20
-45.474222999999995
11
83.8983289999999897
21
-45.420029999999997
0
LINE
8
BLACK
6
CONTINUOUS
10
83.8983289999999897
20
-45.420029999999997
11
83.9939999999999998
21
-45.4009999999999962
0
LINE
8
BLACK
6
CONTINUOUS
10
83.9939999999999998
20
-45.4009999999999962
11
84.6940000000000026
21
-45.4009999999999962
0
LINE
8
BLACK
6
CONTINUOUS
10
84.6940000000000026
20
-45.4009999999999962
11
84.7896709999999985
21
-45.420029999999997
0
LINE
8
BLACK
6
CONTINUOUS
10
86.7896709999999985
20
-45.420029999999997
11
86.8707769999999897
21
-45.474222999999995
0
LINE
8
BLACK
6
CONTINUOUS
10
86.8707769999999897
20
-45.474222999999995
11
86.9249700000000018
21
-45.5553290000000004
0
LINE
8
BLACK
6
CONTINUOUS
10
86.9249700000000018
20
-45.5553290000000004
11
86.9440000000000026
21
-45.6509999999999962
0
LINE
8
BLACK
6
CONTINUOUS
10
86.9440000000000026
20
-45.6509999999999962
11
86.9440000000000026
21
-46.5509999999999948
0
LINE
8
BLACK
6
CONTINUOUS
10
86.9440000000000026
20
-46.5509999999999948
11
86.9249700000000018
21
-46.6466709999999978
0
LINE
8
BLACK
6
CONTINUOUS
10
86.9249700000000018
20
-46.6466709999999978
11
86.8707769999999897
21
-46.7277769999999961
0
LINE
8
BLACK
6
CONTINUOUS
10
86.8707769999999897
20
-46.7277769999999961
11
86.7896709999999985
21
-46.7819700000000012
0
LINE
8
BLACK
6
CONTINUOUS
10
86.7896709999999985
20
-46.7819700000000012
11
86.6940000000000026
21
-46.8009999999999948
0
LINE
8
BLACK
6
CONTINUOUS
10
86.6940000000000026
20
-46.8009999999999948
11
85.9939999999999998
21
-46.8009999999999948
0
LINE
8
BLACK
6
CONTINUOUS
10
85.9939999999999998
20
-46.8009999999999948
11
85.8983289999999897
21
-46.7819700000000012
0
LINE
8
BLACK
6
CONTINUOUS
10
85.8983289999999897
20
-46.7819700000000012
11
85.8172229999999985
21
-46.7277769999999961
0
LINE
8
BLACK
6
CONTINUOUS
10
85.8172229999999985
20
-46.7277769999999961
11
85.7630300000000005
21
-46.6466709999999978
0
LINE
8
BLACK
6
CONTINUOUS
10
85.7630300000000005
20
-46.6466709999999978
11
85.7439999999999998
21
-46.5509999999999948
0
LINE
8
BLACK
6
CONTINUOUS
10
85.7439999999999998
20
-46.5509999999999948
11
85.7439999999999998
21
-45.6509999999999962
0
LINE
8
BLACK
6
CONTINUOUS
10
85.7439999999999998
20
-45.6509999999999962
11
85.7630300000000005
21
-45.5553290000000004
0
LINE
8
BLACK
6
CONTINUOUS
10
85.7630300000000005
20
-45.5553290000000004
11
85.8172229999999985
21
-45.474222999999995
0
LINE
8
BLACK
6
CONTINUOUS
10
85.8172229999999985
20
-45.474222999999995
11
85.8983289999999897
21
-45.420029999999997
0
LINE
8
BLACK
6
CONTINUOUS
10
85.8983289999999897
20
-45.420029999999997
11
85.9939999999999998
21
-45.4009999999999962
0
LINE
8
BLACK
6
CONTINUOUS
10
85.9939999999999998
20
-45.4009999999999962
11
86.6940000000000026
21
-45.4009999999999962
0
LINE
8
BLACK
6
CONTINUOUS
10
86.6940000000000026
20
-45.4009999999999962
11
86.7896709999999985
21
-45.420029999999997
  0
ENDSEC
  0
EOF
